<svg xmlns="http://www.w3.org/2000/svg" width="54" height="54" viewBox="0 0 54 54">
  <g id="Group_144" data-name="Group 144" transform="translate(-80 -103.5)">
    <g id="Rectangle_30" data-name="Rectangle 30" transform="translate(81 104)" fill="#fff" stroke="#ff4046" stroke-width="1.25">
      <rect width="52" height="52" rx="5" stroke="none"/>
      <rect x="0.625" y="0.625" width="50.75" height="50.75" rx="4.375" fill="none"/>
    </g>
    <rect id="Rectangle_31" data-name="Rectangle 31" width="54" height="25" transform="translate(80 118)" fill="#fff"/>
    <rect id="Rectangle_32" data-name="Rectangle 32" width="54" height="25" transform="translate(119.5 103.5) rotate(90)" fill="#fff"/>
    <circle id="Ellipse_16" data-name="Ellipse 16" cx="3.2" cy="3.2" r="3.2" transform="translate(103.801 128.801)" fill="#ff4046"/>
    <path id="Path_92" data-name="Path 92" d="M9,2,7.17,4H4A2.006,2.006,0,0,0,2,6V18a2.006,2.006,0,0,0,2,2H20a2.006,2.006,0,0,0,2-2V6a2.006,2.006,0,0,0-2-2H16.83L15,2Zm3,15a5,5,0,1,1,5-5A5,5,0,0,1,12,17Z" transform="translate(95 120)" fill="#ff4046"/>
    <path id="ic_arrow_downward_24px" d="M20,12l-1.41-1.41L13,16.17V4H11V16.17L5.42,10.58,4,12l8,8Z" transform="translate(119 124) rotate(180)" fill="#ff4046"/>
  </g>
</svg>
