<svg xmlns="http://www.w3.org/2000/svg" width="54" height="54" viewBox="0 0 54 54">
  <g id="Group_216" data-name="Group 216" transform="translate(-77 -596.5)">
    <g id="Group_101" data-name="Group 101">
      <g id="Group_100" data-name="Group 100" transform="translate(0 146)">
        <g id="Rectangle_30" data-name="Rectangle 30" transform="translate(78 451)" fill="#fff" stroke="#ff4046" stroke-width="1.25">
          <rect width="52" height="52" rx="5" stroke="none"/>
          <rect x="0.625" y="0.625" width="50.75" height="50.75" rx="4.375" fill="none"/>
        </g>
      </g>
      <g id="Group_99" data-name="Group 99">
        <rect id="Rectangle_31" data-name="Rectangle 31" width="54" height="25" transform="translate(77 611)" fill="#fff"/>
        <rect id="Rectangle_32" data-name="Rectangle 32" width="54" height="25" transform="translate(116.5 596.5) rotate(90)" fill="#fff"/>
      </g>
    </g>
    <g id="ic_photo_camera_24px" transform="translate(92 613)">
      <circle id="Ellipse_16" data-name="Ellipse 16" cx="3.2" cy="3.2" r="3.2" transform="translate(8.8 8.8)" fill="#ff4046"/>
      <path id="Path_92" data-name="Path 92" d="M9,2,7.17,4H4A2.006,2.006,0,0,0,2,6V18a2.006,2.006,0,0,0,2,2H20a2.006,2.006,0,0,0,2-2V6a2.006,2.006,0,0,0-2-2H16.83L15,2Zm3,15a5,5,0,1,1,5-5A5,5,0,0,1,12,17Z" fill="#ff4046"/>
    </g>
  </g>
</svg>
